<?xml version="1.0" standalone="no"?>
<!DOCTYPE svg PUBLIC "-//W3C//DTD SVG 20010904//EN"
 "http://www.w3.org/TR/2001/REC-SVG-20010904/DTD/svg10.dtd">
<svg version="1.0" xmlns="http://www.w3.org/2000/svg"
 width="512.000000pt" height="512.000000pt" viewBox="0 0 512.000000 512.000000"
 preserveAspectRatio="xMidYMid meet">
<metadata>
Created by potrace 1.11, written by Peter Selinger 2001-2013
</metadata>
<g transform="translate(0.000000,512.000000) scale(0.100000,-0.100000)"
fill="#000000" stroke="none">
<path d="M2378 5115 c-2 -1 -34 -5 -73 -8 -112 -10 -287 -43 -431 -82 l-134
-37 -67 15 c-184 41 -350 42 -573 1 -108 -19 -293 -95 -400 -162 -313 -199
-521 -501 -596 -867 -18 -89 -24 -297 -11 -405 4 -30 14 -87 23 -125 17 -70
16 -71 -11 -160 -66 -219 -99 -450 -100 -705 0 -303 25 -490 102 -747 23 -78
23 -85 9 -140 -8 -32 -17 -78 -21 -103 -4 -25 -9 -58 -11 -75 -8 -46 -7 -213
0 -280 8 -71 9 -73 26 -150 8 -33 14 -62 15 -65 17 -82 104 -265 181 -382 59
-88 213 -246 309 -316 139 -102 360 -195 525 -222 41 -6 86 -13 100 -16 34 -6
227 -5 268 1 18 2 52 7 75 10 23 3 70 13 104 21 59 15 64 14 145 -10 112 -35
242 -62 413 -86 100 -15 445 -20 545 -9 103 11 169 20 194 25 12 2 37 7 56 10
59 11 181 40 263 65 68 20 84 21 125 11 187 -46 403 -49 591 -6 379 85 711
344 876 684 20 41 40 82 44 90 15 29 60 185 70 245 6 33 13 76 17 95 11 67 5
275 -12 365 -23 122 -21 174 10 280 26 91 51 202 61 272 3 21 7 47 10 58 19
94 27 459 13 605 -18 178 -51 338 -109 530 -8 26 -8 48 1 80 44 163 48 410 10
595 -12 61 -26 115 -30 120 -4 6 -13 28 -20 50 -19 59 -58 142 -98 210 -297
500 -867 743 -1429 609 -61 -14 -65 -14 -165 15 -99 29 -260 63 -361 76 -27 4
-59 9 -70 12 -23 5 -453 13 -459 8z m-870 -210 c7 -3 -47 -35 -120 -73 -383
-196 -709 -485 -950 -843 -71 -104 -67 -99 -162 -279 -74 -142 -69 -146 -68
55 3 534 406 1014 947 1125 102 21 307 30 353 15z m2382 1 c237 -25 482 -145
671 -328 231 -225 354 -514 352 -833 -1 -179 5 -177 -76 -20 -257 492 -622
858 -1111 1111 l-140 73 49 3 c65 4 186 1 255 -6z m-1092 -1091 c482 -92 875
-458 997 -930 66 -253 49 -552 -46 -791 -172 -438 -579 -750 -1044 -802 -390
-43 -767 89 -1046 368 -248 247 -371 546 -372 900 -1 350 122 649 368 896 210
211 472 340 756 373 102 12 288 5 387 -14z m-2436 -2565 c250 -423 607 -754
1063 -984 l110 -55 -55 -2 c-189 -7 -275 1 -406 36 -210 57 -369 149 -525 304
-157 158 -275 365 -313 555 -23 110 -28 155 -30 246 -2 58 0 123 2 145 l5 40
46 -95 c26 -52 72 -138 103 -190z m4547 142 c-1 -332 -117 -612 -349 -842
-173 -172 -388 -284 -620 -325 -106 -19 -330 -23 -330 -7 0 4 57 36 125 71
469 239 849 620 1097 1098 38 73 71 133 73 133 2 0 4 -57 4 -128z"/>
</g>
</svg>
